<svg width="132" height="42" viewBox="0 0 132 42" fill="none" xmlns="http://www.w3.org/2000/svg">
<path d="M88.3945 31.0715V11.271H90.3684V31.0704L88.3945 31.0715Z" fill="#727171"/>
<path d="M101.866 13.052V31.0727H99.9204V13.052H93.5117V11.271H108.041L108.328 13.0508L101.866 13.052Z" fill="#727171"/>
<path d="M129.753 31.0715L128.466 14.17L121.63 31.1862H120.085L113.22 14.17L111.932 31.0715H110.102L111.674 11.271H114.108L120.888 28.5459L127.699 11.271H130.102L131.675 31.0704L129.753 31.0715Z" fill="#727171"/>
<path d="M57.2173 31.4393C50.8381 31.4393 47.3125 27.2327 47.3125 21.0113C47.3125 14.7558 51.1298 10.5196 57.3365 10.5196C59.4797 10.4765 61.5975 10.99 63.483 12.01L62.8133 16.3619C61.2296 15.2834 59.3678 14.6862 57.4523 14.6422C53.9846 14.6422 52.299 17.2109 52.299 20.9783C52.299 24.7786 54.0459 27.4393 57.5113 27.4393C58.4554 27.4693 59.3903 27.2467 60.2196 26.7945V23.2008H56.7235L56.1401 19.4902H64.5613V29.3076C62.3785 30.7282 59.8238 31.4704 57.2196 31.4404" fill="#0068B7"/>
<path d="M74.1193 31.2879C71.6954 31.3054 69.2977 30.7868 67.0977 29.7692L67.8241 25.5035C69.7729 26.6231 71.9596 27.2642 74.2045 27.3741C75.6324 27.3741 76.6234 26.7578 76.6234 25.558C76.6234 24.4229 76.0411 23.8905 73.2181 22.8099C69.1987 21.2616 67.4507 19.9472 67.4507 16.6157C67.4507 12.7303 70.4791 10.6554 74.3237 10.6554C76.4244 10.5965 78.5071 11.0582 80.3862 11.9993L79.6291 16.2071C78.0484 15.2253 76.2435 14.6628 74.385 14.5726C72.8696 14.5726 72.1409 15.2128 72.1409 16.1481C72.1409 17.1697 72.6937 17.668 75.1988 18.6328C79.5757 20.2378 81.3192 21.7588 81.3192 24.9723C81.3192 29.356 78.1149 31.2834 74.1228 31.2834" fill="#0068B7"/>
<path d="M4.3735 11.1891L2.87631 9.53296C1.01036 12.7171 0.0181557 16.3374 0 20.028H1.03065C0.963939 16.7609 2.16154 13.5944 4.3735 11.1891Z" fill="url(#paint0_linear_1278_5798)"/>
<path d="M4.10915 27.4449C3.10322 26.4975 2.30918 25.348 1.7792 24.0719C1.24923 22.7958 0.995329 21.4219 1.03419 20.0407V20.0237H0.00240169C-0.0458186 23.5668 0.632537 27.0822 1.99562 30.353L4.10915 27.4449Z" fill="url(#paint1_linear_1278_5798)"/>
<path d="M36.9406 17.3457L35.0234 19.3321C35.6199 19.3351 36.2091 19.4629 36.7532 19.7074C37.2972 19.952 37.784 20.3077 38.1822 20.7518C38.5805 21.1959 38.8813 21.7185 39.0652 22.2858C39.2492 22.8532 39.3123 23.4529 39.2505 24.0461H40.2834C40.2655 22.7499 39.9557 21.4743 39.3769 20.3143C38.7982 19.1543 37.9654 18.1396 36.9406 17.3457Z" fill="url(#paint2_linear_1278_5798)"/>
<path d="M40.2866 24.0498H39.2536C39.2037 26.2065 38.0538 28.0226 35.5078 29.3643L38.1991 33.0828C39.641 30.2943 40.3588 27.1882 40.2866 24.0498Z" fill="url(#paint3_linear_1278_5798)"/>
<path d="M5.45336 16.9996C5.37748 17.408 5.33948 17.8225 5.33985 18.2379C5.33985 24.4174 9.93129 28.3618 15.7271 28.3618C26.7465 28.3618 30.0167 19.3299 34.951 19.3299H35.027L36.9442 17.3435C34.0143 15.1349 30.4117 14.0058 26.7454 14.1471C18.0222 14.1471 13.3752 21.4559 9.41483 21.4559C7.6929 21.4559 6.37278 19.5581 6.37278 17.717C6.37321 17.5307 6.38382 17.3447 6.40457 17.1596L5.45336 16.9996Z" fill="url(#paint4_linear_1278_5798)"/>
<path d="M12.2831 7.93995C18.6521 7.93995 23.0665 12.772 28.7521 12.772C35.5627 12.772 39.338 9.44168 40.2847 2.93534L39.2517 2.76394C38.9646 4.48701 37.8442 6.55853 35.8362 6.55853C33.9418 6.55853 31.9338 4.88994 29.0109 3.27925C25.8774 1.26414 22.2585 0.131306 18.5352 0C15.3183 0.0715056 12.177 0.989962 9.42831 2.66276C6.67958 4.33555 4.42051 6.70353 2.87891 9.52793L4.37609 11.184C5.40113 10.13 6.63205 9.29799 7.99232 8.7399C9.35259 8.18181 10.8131 7.90952 12.2831 7.93995Z" fill="url(#paint5_linear_1278_5798)"/>
<path d="M18.9384 31.9866C14.0065 31.9866 7.77029 30.9151 4.10849 27.4463L1.99609 30.351C5.03587 37.3647 11.5195 42.0004 21.2336 42.0004C27.6548 42.0004 34.7582 39.4499 38.193 33.0832L35.5017 29.3646C32.3382 31.0354 27.0112 31.9866 18.9384 31.9866Z" fill="url(#paint6_linear_1278_5798)"/>
<defs>
<linearGradient id="paint0_linear_1278_5798" x1="5.07326" y1="12.2617" x2="-3.08708" y2="13.3939" gradientUnits="userSpaceOnUse">
<stop stop-color="#FCB811"/>
<stop offset="1" stop-color="#C3BE2F"/>
</linearGradient>
<linearGradient id="paint1_linear_1278_5798" x1="-1.02318" y1="21.2425" x2="4.99398" y2="22.4902" gradientUnits="userSpaceOnUse">
<stop stop-color="#C3BE2F"/>
<stop offset="1" stop-color="#80C241"/>
</linearGradient>
<linearGradient id="paint2_linear_1278_5798" x1="35.7441" y1="18.5652" x2="41.2389" y2="21.6674" gradientUnits="userSpaceOnUse">
<stop stop-color="#6CCEF5"/>
<stop offset="1" stop-color="#00B9C5"/>
</linearGradient>
<linearGradient id="paint3_linear_1278_5798" x1="41.21" y1="26.1816" x2="35.7452" y2="27.6449" gradientUnits="userSpaceOnUse">
<stop stop-color="#00B9C5"/>
<stop offset="1" stop-color="#00A89B"/>
</linearGradient>
<linearGradient id="paint4_linear_1278_5798" x1="7.01487" y1="20.9782" x2="35.3984" y2="18.3975" gradientUnits="userSpaceOnUse">
<stop stop-color="#0071BB"/>
<stop offset="1" stop-color="#6CCEF5"/>
</linearGradient>
<linearGradient id="paint5_linear_1278_5798" x1="4.33773" y1="5.40256" x2="38.6272" y2="13.4491" gradientUnits="userSpaceOnUse">
<stop stop-color="#FCB811"/>
<stop offset="0.598" stop-color="#F5831B"/>
<stop offset="1" stop-color="#F16421"/>
</linearGradient>
<linearGradient id="paint6_linear_1278_5798" x1="3.44397" y1="34.1266" x2="35.3332" y2="34.2167" gradientUnits="userSpaceOnUse">
<stop stop-color="#82C241"/>
<stop offset="1" stop-color="#00A89B"/>
</linearGradient>
</defs>
</svg>
