<svg xmlns="http://www.w3.org/2000/svg" xml:space="preserve" width="275" height="79.400002" viewBox="0 0 274.99999 79.400002"><defs><clipPath id="a" clipPathUnits="userSpaceOnUse"><path d="M0 651.968h898.583V0H0Z"/></clipPath></defs><g clip-path="url(#a)" transform="matrix(1.39293 0 0 -1.39293 -447.536 473.9)"><path d="M5.25 0h3.374v-2.557H5.25v-8.244H2.013V5.985H5.25ZM-8.407-7.155c.843 0 1.577.218 2.203.708.599.462.898 1.06.898 1.767 0 .681-.3 1.252-.898 1.742a3.62 3.62 0 0 1-2.203.708c-.871 0-1.578-.246-2.177-.708-.626-.49-.925-1.061-.925-1.742 0-.707.299-1.305.925-1.767.599-.49 1.306-.708 2.177-.708m-3.755 13.549h7.509V4.027h-7.51zm4.87-21.221h12.65v-2.503h-13.44c-2.91 0-4.352 1.333-4.352 4.054v2.611h3.265v-2.231c0-1.305.626-1.931 1.877-1.931M-8.407-9.44c-1.85 0-3.374.462-4.517 1.415-1.17.924-1.741 2.04-1.741 3.345 0 1.28.57 2.395 1.74 3.347C-11.78-.408-10.256.055-8.406.055c1.849 0 3.346-.463 4.516-1.388 1.142-.952 1.74-2.067 1.74-3.347 0-1.305-.598-2.421-1.74-3.345-1.17-.953-2.667-1.415-4.516-1.415M-1.09.844h-14.637v2.34H-1.09z" style="fill:#231815;fill-opacity:1;fill-rule:nonzero;stroke:none" transform="translate(406.478 317.353)"/><path d="M5.25 0c.843 0 1.578.218 2.204.708.598.462.898 1.061.898 1.768 0 .68-.3 1.252-.898 1.741-.626.463-1.361.708-2.204.708-.871 0-1.578-.245-2.177-.708-.625-.489-.925-1.061-.925-1.741 0-.707.3-1.306.925-1.768C3.672.218 4.379 0 5.25 0M1.496 13.549h7.509v-2.367h-7.51Zm11.018-5.55H-2.123v2.34h14.637ZM3.644-2.149c-1.17.19-2.148.626-2.965 1.306C-.463.082-1.007 1.17-1.007 2.476c0 1.279.57 2.394 1.74 3.346C1.877 6.747 3.4 7.21 5.25 7.21c1.85 0 3.346-.463 4.516-1.388 1.143-.952 1.74-2.067 1.74-3.346 0-1.306-.57-2.394-1.685-3.319-.817-.653-1.77-1.089-2.911-1.306v-2.476h3.618c3.265 0 4.897 1.252 4.897 3.782v13.984h3.238V5.306h3.373V2.721h-3.373v-12.95h-3.238v4.38c-.98-.871-2.448-1.306-4.353-1.306H-2.64v2.53h6.285z" style="fill:#231815;fill-opacity:1;fill-rule:nonzero;stroke:none" transform="translate(419.94 310.198)"/><path d="M462.116 323.34h3.265v-23.37h-3.265zm-8.95-3.81c0-3.97.624-6.883 1.931-8.733 1.088-1.578 2.476-2.693 4.135-3.292v-2.584c-2.476.49-4.598 1.795-6.339 3.863a9.3 9.3 0 0 0-1.333 2.068 10.414 10.414 0 0 0-1.333-2.068c-1.769-2.068-3.89-3.374-6.339-3.863v2.584c1.66.6 3.047 1.714 4.135 3.292 1.28 1.85 1.931 4.762 1.931 8.733v3.455h3.211z" style="fill:#231815;fill-opacity:1;fill-rule:nonzero;stroke:none;stroke-width:.999998"/><path d="M-47.775 0c0-3.429.925-5.985 2.829-7.727 1.74-1.632 3.728-2.502 5.904-2.639v-2.503c-2.993.082-5.631 1.061-7.971 2.911a9.102 9.102 0 0 0-2.394 2.803c-.653-1.089-1.442-2.04-2.422-2.803-2.34-1.85-5.006-2.829-7.971-2.91v2.502c2.176.137 4.135 1.007 5.904 2.64C-52.019-5.986-51.067-3.43-51.067 0v1.278h3.292zm10.284-19.344h-23.86v2.64h23.86z" style="fill:#231815;fill-opacity:1;fill-rule:nonzero;stroke:none;stroke-width:.999998" transform="translate(530.78 321.734)"/><path d="M515.51 323.34h3.184v-14.012h-3.184zm-5.06 0h3.129v-14.012h-3.129v6.094h-2.939v2.557h2.939zm5.005-17.657H503.92v-1.906c0-.87.436-1.278 1.333-1.278h10.202zm3.239.734v-6.394h-14.12c-2.613 0-3.891 1.17-3.891 3.51v4.625h16.215c1.197 0 1.796-.598 1.796-1.74m-10.53 6.04v-2.478h-7.1c-2.803 0-4.19 1.28-4.19 3.864v9.304h10.121v-2.475h-6.993v-2.748h5.877v-2.448h-5.877v-1.252c0-1.197.572-1.768 1.714-1.768z" style="fill:#231815;fill-opacity:1;fill-rule:nonzero;stroke:none;stroke-width:.999998"/><path d="M5.4 0C4.46 9.168-5.985 16.683-17.93 16.783c-11.942.099-20.871-7.259-19.931-16.429.939-9.175 11.384-16.689 23.332-16.785C-2.586-16.532 6.334-9.171 5.4 0m-39.52 2.294c-.814 7.396 6.94 13.332 17.32 13.247C-6.421 15.46 2.655 9.401 3.468 2.009c.817-7.397-6.935-13.33-17.32-13.245-10.374.079-19.45 6.132-20.266 13.53" style="fill:#f7bb82;fill-opacity:1;fill-rule:nonzero;stroke:none" transform="translate(378.725 308.756)"/><path d="M5.4 0c-6.837-7.147-6.951-18.135-.254-24.551 6.699-6.417 17.677-5.817 24.514 1.322 6.844 7.143 6.95 18.132.254 24.554C23.216 7.738 12.24 7.144 5.4 0m21.792-20.181c-5.88-6.146-15.322-6.656-21.081-1.133C.338-15.803.436-6.344 6.325-.194 12.209 5.949 21.655 6.453 27.414.94c5.766-5.516 5.669-14.974-.222-21.121" style="fill:#f4a051;fill-opacity:1;fill-rule:nonzero;stroke:none" transform="translate(338.894 312.316)"/><path d="M5.25 0c-12.7-10.049-15.93-24.611-7.223-32.524 8.707-7.914 26.059-6.183 38.76 3.868C49.479-18.604 52.709-4.04 44.007 3.872 35.292 11.788 17.943 10.054 5.25 0m11.358 3.941c12.236 4.588 24.336-.053 27.03-10.36 2.693-10.309-5.05-22.388-17.284-26.968-12.236-4.591-24.333.054-27.03 10.361C-3.365-12.72 4.377-.643 16.609 3.941" style="fill:#ed7100;fill-opacity:1;fill-rule:nonzero;stroke:none" transform="translate(328.154 331.38)"/></g></svg>